<mxfile host="app.diagrams.net" modified="2024-06-14T17:21:02.704Z" agent="Mozilla/5.0 (Windows NT 10.0; Win64; x64) AppleWebKit/537.36 (KHTML, like Gecko) Chrome/122.0.0.0 YaBrowser/24.4.0.0 Safari/537.36" version="24.5.4" etag="CATEkc9WI_lPfqsTmavv" type="github">
  <diagram name="Страница — 1" id="gKWzUo2RmAoA6egwkdzj">
    <mxGraphModel>
      <root>
        <mxCell id="0" />
        <mxCell id="1" parent="0" />
      </root>
    </mxGraphModel>
  </diagram>
</mxfile>
